{"accessors" : [{"bufferView" : 0, "byteOffset" : 0, "componentType" : 5123, "count" : 618, "type" : "SCALAR", "max" : [409], "min" : [0]}, {"bufferView" : 1, "byteOffset" : 0, "componentType" : 5126, "count" : 410, "type" : "VEC3", "max" : [3, 22, 2], "min" : [-2, 11, -2]}, {"bufferView" : 1, "byteOffset" : 12, "componentType" : 5126, "count" : 410, "type" : "VEC2", "max" : [0.173828125, -0.966796875], "min" : [0.142578125, -0.998046875]}, {"bufferView" : 1, "byteOffset" : 20, "componentType" : 5126, "count" : 410, "type" : "VEC3", "max" : [1.0000044107437134, 1.0000044107437134, 1.0000044107437134], "min" : [-1.0000044107437134, -1.0000044107437134, 0]}, {"bufferView" : 0, "byteOffset" : 1236, "componentType" : 5123, "count" : 180, "type" : "SCALAR", "max" : [119], "min" : [0]}, {"bufferView" : 2, "byteOffset" : 0, "componentType" : 5126, "count" : 120, "type" : "VEC3", "max" : [1, 27, 1.9375], "min" : [0, 12, 1.9375]}, {"bufferView" : 2, "byteOffset" : 12, "componentType" : 5126, "count" : 120, "type" : "VEC2", "max" : [0.982421875, -0.896484375], "min" : [0.951171875, -0.927734375]}, {"bufferView" : 2, "byteOffset" : 20, "componentType" : 5126, "count" : 120, "type" : "VEC3", "max" : [0, 0, 1.0000044107437134], "min" : [0, 0, -1.0000044107437134]}, {"bufferView" : 0, "byteOffset" : 1596, "componentType" : 5123, "count" : 342, "type" : "SCALAR", "max" : [227], "min" : [0]}, {"bufferView" : 3, "byteOffset" : 0, "componentType" : 5126, "count" : 228, "type" : "VEC3", "max" : [5, 22, 8], "min" : [-9, 15, 1]}, {"bufferView" : 3, "byteOffset" : 12, "componentType" : 5126, "count" : 228, "type" : "VEC2", "max" : [0.384765625, -0.896484375], "min" : [0.353515625, -0.927734375]}, {"bufferView" : 3, "byteOffset" : 20, "componentType" : 5126, "count" : 228, "type" : "VEC3", "max" : [1.0000044107437134, 1.0000044107437134, 1.0000044107437134], "min" : [-1.0000044107437134, 0, -1.0000044107437134]}, {"bufferView" : 0, "byteOffset" : 2280, "componentType" : 5123, "count" : 13032, "type" : "SCALAR", "max" : [8679], "min" : [0]}, {"bufferView" : 4, "byteOffset" : 0, "componentType" : 5126, "count" : 8680, "type" : "VEC3", "max" : [9, 21, 8], "min" : [-9, 0, -8]}, {"bufferView" : 4, "byteOffset" : 12, "componentType" : 5126, "count" : 8680, "type" : "VEC2", "max" : [0.173828125, -0.615234375], "min" : [0.142578125, -0.646484375]}, {"bufferView" : 4, "byteOffset" : 20, "componentType" : 5126, "count" : 8680, "type" : "VEC3", "max" : [1.0000044107437134, 1.0000044107437134, 1.0000044107437134], "min" : [-1.0000044107437134, -1.0000044107437134, -1.0000044107437134]}, {"bufferView" : 0, "byteOffset" : 28344, "componentType" : 5123, "count" : 2676, "type" : "SCALAR", "max" : [1756], "min" : [0]}, {"bufferView" : 5, "byteOffset" : 0, "componentType" : 5126, "count" : 1757, "type" : "VEC3", "max" : [4, 27, 3], "min" : [-3, 8, -3]}, {"bufferView" : 5, "byteOffset" : 12, "componentType" : 5126, "count" : 1757, "type" : "VEC2", "max" : [0.666015625, -0.298828125], "min" : [0.423828125, -0.330078125]}, {"bufferView" : 5, "byteOffset" : 20, "componentType" : 5126, "count" : 1757, "type" : "VEC3", "max" : [1.0000044107437134, 1.0000044107437134, 1.0000044107437134], "min" : [-1.0000044107437134, -1.0000044107437134, -1.0000044107437134]}], "asset" : {"generator" : "Aspose.3D 21.1", "version" : "2.0"}, "buffers" : [{"uri" : "buffer.bin", "byteLength" : 572856}], "bufferViews" : [{"buffer" : 0, "byteOffset" : 0, "byteLength" : 33696, "target" : 34963}, {"buffer" : 0, "byteOffset" : 33700, "byteLength" : 19776, "byteStride" : 32, "target" : 34962}, {"buffer" : 0, "byteOffset" : 53480, "byteLength" : 5760, "byteStride" : 32, "target" : 34962}, {"buffer" : 0, "byteOffset" : 59244, "byteLength" : 10944, "byteStride" : 32, "target" : 34962}, {"buffer" : 0, "byteOffset" : 70192, "byteLength" : 417024, "byteStride" : 32, "target" : 34962}, {"buffer" : 0, "byteOffset" : 487220, "byteLength" : 85632, "byteStride" : 32, "target" : 34962}], "meshes" : [{"primitives" : [{"attributes" : {"POSITION" : 1, "TEXCOORD_0" : 2, "NORMAL" : 3}, "indices" : 0, "mode" : 4}]}, {"primitives" : [{"attributes" : {"POSITION" : 5, "TEXCOORD_0" : 6, "NORMAL" : 7}, "indices" : 4, "mode" : 4}]}, {"primitives" : [{"attributes" : {"POSITION" : 9, "TEXCOORD_0" : 10, "NORMAL" : 11}, "indices" : 8, "mode" : 4}]}, {"primitives" : [{"attributes" : {"POSITION" : 13, "TEXCOORD_0" : 14, "NORMAL" : 15}, "indices" : 12, "mode" : 4}]}, {"primitives" : [{"attributes" : {"POSITION" : 17, "TEXCOORD_0" : 18, "NORMAL" : 19}, "indices" : 16, "mode" : 4}]}], "nodes" : [{"mesh" : 0, "name" : "Oak_Planks"}, {"mesh" : 1, "name" : "Ladder"}, {"mesh" : 2, "name" : "Snow_Block"}, {"mesh" : 3, "name" : "Packed_Ice"}, {"mesh" : 4, "name" : "Stripped_Oak_Log"}], "scene" : 0, "scenes" : [{"nodes" : [0, 1, 2, 3, 4]}]}